<svg width="120" height="40" viewBox="0 0 120 40" fill="none" xmlns="http://www.w3.org/2000/svg">
<g clip-path="url(#clip0_1_95)">
<path d="M110.471 1.72057e-06L9.5348 1.72058e-06C9.1681 1.72058e-06 8.8058 1.72062e-06 8.44007 0.00200172C8.13392 0.00400172 7.83021 0.00981172 7.52112 0.0147017C6.84964 0.0226035 6.17973 0.081678 5.51722 0.191412C4.85565 0.303534 4.21479 0.514917 3.61634 0.818412C3.01862 1.12447 2.47247 1.52217 1.99769 1.99707C1.52042 2.47064 1.12259 3.01802 0.819472 3.61816C0.515522 4.21711 0.304763 4.85894 0.194472 5.52148C0.083133 6.18319 0.0232205 6.85252 0.0152721 7.52348C0.00599207 7.83008 0.00501207 8.1377 0.00012207 8.44434V31.5586C0.00501207 31.8691 0.00599207 32.1699 0.0152721 32.4805C0.0232229 33.1514 0.0831355 33.8207 0.194472 34.4824C0.304458 35.1453 0.51523 35.7875 0.819472 36.3867C1.12245 36.9849 1.52034 37.5301 1.99769 38.001C2.47067 38.478 3.01717 38.876 3.61634 39.1797C4.21479 39.484 4.85557 39.6966 5.51722 39.8105C6.17984 39.9194 6.84968 39.9785 7.52112 39.9873C7.83021 39.9941 8.13392 39.998 8.44007 39.998C8.80579 40 9.16812 40 9.5348 40H110.471C110.83 40 111.195 40 111.555 39.998C111.86 39.998 112.172 39.9941 112.477 39.9873C113.147 39.9789 113.815 39.9198 114.477 39.8105C115.141 39.6958 115.784 39.4833 116.385 39.1797C116.984 38.8758 117.53 38.4778 118.002 38.001C118.478 37.5282 118.877 36.9835 119.184 36.3867C119.486 35.7871 119.694 35.1449 119.803 34.4824C119.914 33.8206 119.976 33.1515 119.988 32.4805C119.992 32.1699 119.992 31.8691 119.992 31.5586C120 31.1953 120 30.834 120 30.4648V9.53613C120 9.16992 120 8.80664 119.992 8.44434C119.992 8.1377 119.992 7.83008 119.988 7.52344C119.976 6.85242 119.914 6.18324 119.803 5.52144C119.694 4.85928 119.485 4.2175 119.184 3.61812C118.566 2.4152 117.588 1.43603 116.385 0.818322C115.784 0.515569 115.14 0.304242 114.477 0.191322C113.816 0.0811045 113.147 0.0220095 112.477 0.0145617C112.172 0.00968172 111.86 0.00382172 111.555 0.00187172C111.195 -0.000128279 110.83 1.72057e-06 110.471 1.72057e-06Z" fill="#A6A6A6"/>
<path d="M8.44493 39.125C8.14025 39.125 7.84293 39.1211 7.54064 39.1143C6.91442 39.1061 6.28967 39.0516 5.6715 38.9512C5.09509 38.8519 4.5367 38.6673 4.01476 38.4033C3.4976 38.1415 3.02591 37.7983 2.61776 37.3867C2.2037 36.98 1.85897 36.5082 1.59725 35.9902C1.33264 35.4688 1.14951 34.9099 1.05425 34.333C0.951372 33.7131 0.895712 33.0863 0.887748 32.458C0.881408 32.2471 0.873108 31.5449 0.873108 31.5449V8.44434C0.873108 8.44434 0.881948 7.75293 0.887798 7.5498C0.895424 6.92248 0.95076 6.29665 1.05333 5.67773C1.14877 5.09925 1.33203 4.53875 1.59679 4.01563C1.85755 3.49794 2.20036 3.02586 2.61193 2.61768C3.02303 2.20562 3.49623 1.8606 4.01427 1.59521C4.53501 1.33209 5.09234 1.14873 5.66759 1.05127C6.28779 0.949836 6.91471 0.894996 7.5431 0.88721L8.44542 0.875L111.431 0.874817L112.344 0.887517C112.967 0.894916 113.588 0.949267 114.202 1.05011C114.783 1.14879 115.346 1.33343 115.873 1.59796C116.911 2.1328 117.755 2.97898 118.288 4.01789C118.549 4.53739 118.729 5.09332 118.823 5.66681C118.927 6.29081 118.985 6.92156 118.997 7.55402C119 7.83722 119 8.14142 119 8.44416C119.008 8.81916 119.008 9.17609 119.008 9.53595V30.4646C119.008 30.8279 119.008 31.1824 119 31.5398C119 31.865 119 32.1629 118.996 32.4695C118.984 33.0907 118.927 33.7102 118.825 34.323C118.732 34.9041 118.55 35.4673 118.285 35.993C118.022 36.5054 117.679 36.9731 117.27 37.3787C116.861 37.7925 116.389 38.1378 115.87 38.4012C115.345 38.6672 114.783 38.8526 114.202 38.951C113.584 39.052 112.959 39.1065 112.333 39.1141C112.04 39.1209 111.733 39.1248 111.436 39.1248L110.352 39.1268L8.44493 39.125Z" fill="black"/>
<path fill-rule="evenodd" clip-rule="evenodd" d="M59.9825 8.43689H59.0939V14.6976H59.9825V8.43689ZM22.0372 12.2107C22.8487 11.2365 23.2485 9.98433 23.1517 8.72009C21.9119 8.85031 20.7666 9.44287 19.9441 10.3797C19.542 10.8374 19.234 11.3698 19.0378 11.9466C18.8415 12.5233 18.7609 13.1331 18.8004 13.7411C19.4206 13.7475 20.0341 13.6131 20.5947 13.348C21.1554 13.0829 21.6486 12.694 22.0372 12.2107ZM24.7691 20.3007C24.7799 19.466 25.0016 18.6477 25.4136 17.9217C25.8256 17.1957 26.4146 16.5858 27.1257 16.1486C26.6739 15.5035 26.078 14.9725 25.3852 14.598C24.6923 14.2234 23.9217 14.0156 23.1345 13.991C22.1073 13.8831 21.0994 14.2832 20.2756 14.6101C19.7526 14.8177 19.3039 14.9958 18.9716 14.9958C18.5936 14.9958 18.132 14.8104 17.6148 14.6026C16.9385 14.331 16.167 14.0211 15.3631 14.0376C14.4454 14.0673 13.5511 14.3341 12.7672 14.8122C11.9833 15.2903 11.3367 15.9632 10.8902 16.7655C8.95619 20.1139 10.3988 25.035 12.2514 27.7416C13.1783 29.0669 14.2616 30.5474 15.679 30.4949C16.322 30.4682 16.7783 30.2762 17.2495 30.0779C17.7949 29.8484 18.3603 29.6104 19.2584 29.6104C20.1053 29.6104 20.6465 29.841 21.1658 30.0622C21.6637 30.2743 22.1416 30.4779 22.8494 30.4615C24.3378 30.4374 25.2756 29.1303 26.1699 27.7924C26.8359 26.848 27.3484 25.8043 27.6884 24.6999C26.8236 24.3341 26.0857 23.722 25.5666 22.9397C25.0475 22.1574 24.7701 21.2396 24.7691 20.3007ZM37.569 27.1396H42.3024L43.4381 30.496H45.4772L40.9938 18.078H38.9108L34.4274 30.496H36.4323L37.569 27.1396ZM41.8112 25.5907H38.0592L39.9098 20.1435H39.9616L41.8112 25.5907ZM55.1598 25.9698C55.1598 28.7833 53.654 30.5909 51.3815 30.5909C50.8058 30.621 50.2333 30.4884 49.7296 30.2083C49.2258 29.9281 48.811 29.5118 48.5329 29.0069H48.4899V33.4913H46.6315V21.4425H48.4303V22.9483H48.4645C48.7555 22.4459 49.1772 22.0317 49.6848 21.7498C50.1925 21.468 50.767 21.329 51.3473 21.3477C53.6451 21.3477 55.1598 23.1641 55.1598 25.9698ZM53.2497 25.9698C53.2497 24.1368 52.3024 22.9317 50.8571 22.9317C49.4372 22.9317 48.4821 24.1622 48.4821 25.9698C48.4821 27.794 49.4372 29.0157 50.8571 29.0157C52.3024 29.0157 53.2497 27.8194 53.2497 25.9698ZM61.3463 30.5909C63.6188 30.5909 65.1247 28.7833 65.1247 25.9698C65.1247 23.1641 63.61 21.3477 61.3121 21.3477C60.7318 21.329 60.1573 21.468 59.6496 21.7498C59.142 22.0317 58.7203 22.4459 58.4293 22.9483H58.3951V21.4425H56.5963V33.4913H58.4547V29.0069H58.4977C58.7759 29.5118 59.1906 29.9281 59.6944 30.2083C60.1982 30.4884 60.7707 30.621 61.3463 30.5909ZM60.8219 22.9317C62.2672 22.9317 63.2145 24.1368 63.2145 25.9698C63.2145 27.8194 62.2672 29.0157 60.8219 29.0157C59.402 29.0157 58.4469 27.794 58.4469 25.9698C58.4469 24.1622 59.402 22.9317 60.8219 22.9317ZM71.7106 27.0361C71.8483 28.2675 73.0446 29.0761 74.6794 29.0761C76.2458 29.0761 77.3727 28.2675 77.3727 27.1571C77.3727 26.1932 76.693 25.6161 75.0836 25.2206L73.4743 24.8329C71.194 24.2821 70.1354 23.2157 70.1354 21.4852C70.1354 19.3427 72.0026 17.871 74.654 17.871C77.278 17.871 79.0768 19.3427 79.1374 21.4852H77.2614C77.1491 20.246 76.1246 19.4979 74.6276 19.4979C73.1305 19.4979 72.1061 20.2548 72.1061 21.3563C72.1061 22.2343 72.7604 22.7509 74.361 23.1463L75.7291 23.4823C78.277 24.0848 79.3356 25.1083 79.3356 26.9247C79.3356 29.2479 77.485 30.703 74.5416 30.703C71.7877 30.703 69.9283 29.2821 69.8082 27.036L71.7106 27.0361ZM83.3463 21.4423V19.2997H81.4791V21.4423H80.1627V22.9139H81.4791V28.1034C81.4791 29.8592 82.194 30.5477 84.027 30.5477C84.3731 30.5541 84.7189 30.5253 85.0592 30.4618V28.9989C84.8563 29.024 84.6523 29.0383 84.4479 29.0419C83.691 29.0419 83.3463 28.6805 83.3463 27.9052V22.9139H85.068V21.4423H83.3463ZM86.0651 25.9696C86.0651 23.121 87.7428 21.3309 90.359 21.3309C92.984 21.3309 94.6539 23.1209 94.6539 25.9696C94.6539 28.8261 92.9928 30.6083 90.359 30.6083C87.7262 30.6083 86.0651 28.826 86.0651 25.9696ZM92.7604 25.9696C92.7604 24.0155 91.8649 22.8622 90.359 22.8622C88.8531 22.8622 87.9586 24.0243 87.9586 25.9696C87.9586 27.9315 88.8531 29.0761 90.359 29.0761C91.8649 29.0761 92.7603 27.9315 92.7604 25.9696ZM97.9586 21.4424H96.1862L96.1862 30.4961H98.0446V25.126C98.014 24.8575 98.0419 24.5856 98.1263 24.3289C98.2107 24.0723 98.3497 23.8369 98.5337 23.639C98.7176 23.4411 98.9423 23.2854 99.1921 23.1825C99.442 23.0796 99.7111 23.032 99.9811 23.043C100.264 23.0347 100.546 23.0726 100.816 23.1553V21.417C100.607 21.3702 100.394 21.3469 100.179 21.3476C99.6837 21.3287 99.1967 21.481 98.8001 21.7789C98.4035 22.0768 98.1215 22.5021 98.0016 22.9834H97.9586V21.4424ZM109.384 27.8368C109.134 29.4803 107.534 30.6083 105.486 30.6083C102.852 30.6083 101.217 28.8436 101.217 26.0126C101.217 23.1727 102.861 21.3309 105.408 21.3309C107.913 21.3309 109.488 23.0516 109.488 25.7968V26.4335H103.093V26.5458C103.064 26.879 103.106 27.2146 103.216 27.5305C103.326 27.8463 103.502 28.1351 103.732 28.3777C103.963 28.6202 104.242 28.811 104.552 28.9373C104.862 29.0636 105.195 29.1225 105.529 29.1102C105.968 29.1514 106.409 29.0497 106.786 28.8202C107.162 28.5908 107.455 28.2459 107.62 27.8368L109.384 27.8368ZM103.102 25.1346H107.629C107.645 24.835 107.6 24.5352 107.495 24.254C107.39 23.9728 107.229 23.7163 107.02 23.5005C106.812 23.2847 106.561 23.1144 106.283 23.0002C106.006 22.886 105.708 22.8303 105.408 22.8368C105.105 22.835 104.805 22.8931 104.525 23.0079C104.245 23.1226 103.991 23.2917 103.776 23.5053C103.562 23.7189 103.392 23.9729 103.276 24.2526C103.161 24.5322 103.101 24.832 103.102 25.1346ZM38.971 8.9031C38.6069 8.76167 38.2159 8.70281 37.8263 8.73077H35.671V14.6976H37.8263C39.6036 14.6976 40.6339 13.6019 40.6339 11.6956C40.683 11.3081 40.6455 10.9145 40.5241 10.5432C40.4027 10.172 40.2004 9.83227 39.9319 9.54864C39.6633 9.26502 39.3351 9.04454 38.971 8.9031ZM37.7228 13.8538H36.5978V9.57398H37.7228C37.9998 9.55861 38.2767 9.60469 38.5338 9.70893C38.7909 9.81317 39.0217 9.97297 39.2098 10.1769C39.3978 10.3808 39.5385 10.6238 39.6216 10.8885C39.7047 11.1532 39.7282 11.4329 39.6905 11.7078C39.7312 11.9837 39.7098 12.2652 39.628 12.5318C39.5461 12.7984 39.4058 13.0435 39.2173 13.249C39.0288 13.4546 38.7969 13.6155 38.5383 13.7201C38.2798 13.8248 38.0012 13.8704 37.7228 13.8538ZM41.6806 12.4442C41.6523 12.1482 41.6861 11.8497 41.78 11.5676C41.8738 11.2855 42.0256 11.0262 42.2255 10.8062C42.4254 10.5862 42.6692 10.4105 42.941 10.2902C43.2129 10.1699 43.5068 10.1078 43.8041 10.1078C44.1014 10.1078 44.3954 10.1699 44.6672 10.2902C44.9391 10.4105 45.1828 10.5862 45.3827 10.8062C45.5827 11.0262 45.7344 11.2855 45.8283 11.5676C45.9221 11.8497 45.956 12.1482 45.9276 12.4442C45.9565 12.7404 45.923 13.0394 45.8295 13.3219C45.7359 13.6044 45.5842 13.8642 45.3842 14.0847C45.1842 14.3051 44.9403 14.4812 44.6682 14.6017C44.3961 14.7223 44.1017 14.7845 43.8041 14.7845C43.5065 14.7845 43.2122 14.7223 42.94 14.6017C42.6679 14.4812 42.424 14.3051 42.224 14.0847C42.024 13.8642 41.8724 13.6044 41.7788 13.3219C41.6852 13.0394 41.6517 12.7404 41.6806 12.4442ZM45.0136 12.4442C45.0136 11.4681 44.5751 10.8973 43.8056 10.8973C43.0331 10.8973 42.5986 11.4681 42.5986 12.4442C42.5986 13.4281 43.0331 13.9945 43.8056 13.9945C44.5751 13.9945 45.0136 13.4241 45.0136 12.4442ZM50.6515 14.6976H51.5734L52.8097 10.1947H51.921L51.1183 13.6307H51.048L50.1222 10.1947H49.2697L48.3439 13.6307H48.2775L47.4708 10.1947H46.5695L47.8107 14.6976H48.7238L49.6505 11.3812H49.7208L50.6515 14.6976ZM53.8536 10.1947H54.7091V10.9101H54.7755C54.8882 10.6532 55.0782 10.4378 55.319 10.294C55.5599 10.1502 55.8397 10.0851 56.1193 10.1078C56.3384 10.0914 56.5584 10.1244 56.763 10.2045C56.9676 10.2846 57.1515 10.4097 57.3012 10.5705C57.4509 10.7314 57.5625 10.9238 57.6277 11.1337C57.6929 11.3435 57.71 11.5653 57.6779 11.7826V14.6976H56.7892V12.0058C56.7892 11.2822 56.4747 10.9223 55.8175 10.9223C55.6688 10.9154 55.5203 10.9407 55.3822 10.9965C55.2441 11.0523 55.1198 11.1374 55.0177 11.2457C54.9155 11.3541 54.8381 11.4833 54.7905 11.6244C54.743 11.7656 54.7266 11.9153 54.7423 12.0634V14.6977H53.8536L53.8536 10.1947ZM61.2182 12.4443C61.1899 12.1483 61.2237 11.8497 61.3176 11.5676C61.4115 11.2856 61.5632 11.0262 61.7632 10.8062C61.9632 10.5862 62.2069 10.4105 62.4788 10.2902C62.7506 10.1699 63.0446 10.1078 63.3419 10.1078C63.6392 10.1078 63.9332 10.1699 64.2051 10.2902C64.477 10.4105 64.7207 10.5862 64.9207 10.8062C65.1206 11.0262 65.2724 11.2856 65.3663 11.5676C65.4601 11.8497 65.494 12.1483 65.4657 12.4443C65.4945 12.7405 65.461 13.0395 65.3674 13.322C65.2738 13.6045 65.1221 13.8643 64.9221 14.0847C64.7221 14.3051 64.4782 14.4813 64.206 14.6018C63.9339 14.7223 63.6396 14.7846 63.3419 14.7846C63.0443 14.7846 62.75 14.7223 62.4778 14.6018C62.2057 14.4813 61.9618 14.3051 61.7618 14.0847C61.5618 13.8643 61.4101 13.6045 61.3164 13.322C61.2228 13.0395 61.1893 12.7405 61.2182 12.4443ZM64.5512 12.4443C64.5512 11.4682 64.1127 10.8974 63.3432 10.8974C62.5707 10.8974 62.1362 11.4682 62.1362 12.4443C62.1362 13.4282 62.5707 13.9946 63.3432 13.9946C64.1127 13.9945 64.5512 13.4242 64.5512 12.4443ZM68.0758 12.0799C67.0045 12.1464 66.401 12.6136 66.401 13.4242C66.4017 13.6142 66.4423 13.802 66.5201 13.9754C66.5978 14.1489 66.7111 14.3041 66.8525 14.431C66.9939 14.558 67.1604 14.6539 67.3411 14.7126C67.5219 14.7713 67.7129 14.7915 67.902 14.7718C68.1698 14.7842 68.4361 14.7253 68.6738 14.6011C68.9114 14.4769 69.1118 14.2918 69.2545 14.0648H69.3248V14.6976H70.1803V11.621C70.1803 10.6698 69.5436 10.1078 68.4147 10.1078C67.3932 10.1078 66.6656 10.6039 66.5748 11.3773H67.4352C67.5338 11.059 67.8776 10.8768 68.3737 10.8768C68.9811 10.8768 69.2955 11.1454 69.2955 11.621V12.0096L68.0758 12.0799ZM69.2955 12.663V13.0394C69.2859 13.1815 69.2478 13.3201 69.1835 13.4471C69.1192 13.5742 69.03 13.6869 68.9212 13.7788C68.8124 13.8706 68.6863 13.9396 68.5503 13.9817C68.4143 14.0238 68.2712 14.0381 68.1295 14.0238C67.6461 14.0238 67.2945 13.7879 67.2945 13.3827C67.2945 12.9857 67.5758 12.7748 68.1959 12.7333L69.2955 12.663ZM71.3483 12.4442C71.3483 11.0214 72.0797 10.12 73.2174 10.12C73.4988 10.107 73.7781 10.1744 74.0226 10.3143C74.2672 10.4542 74.4668 10.6608 74.5983 10.91H74.6647V8.43689H75.5533V14.6976H74.7018V13.9862H74.6315C74.4899 14.2337 74.2833 14.4377 74.034 14.5762C73.7848 14.7147 73.5024 14.7823 73.2174 14.7718C72.0719 14.7719 71.3483 13.8705 71.3483 12.4442ZM72.2663 12.4442C72.2663 13.3993 72.7165 13.974 73.4694 13.974C74.2184 13.974 74.6813 13.391 74.6813 12.4481C74.6813 11.5097 74.2135 10.9183 73.4694 10.9183C72.7213 10.9183 72.2662 11.497 72.2662 12.4442H72.2663ZM79.3293 11.5676C79.2354 11.8497 79.2016 12.1482 79.2299 12.4442C79.201 12.7404 79.2345 13.0394 79.3281 13.3219C79.4217 13.6044 79.5733 13.8642 79.7733 14.0847C79.9733 14.3051 80.2172 14.4812 80.4893 14.6017C80.7615 14.7223 81.0558 14.7845 81.3534 14.7845C81.6511 14.7845 81.9454 14.7223 82.2175 14.6017C82.4896 14.4812 82.7335 14.3051 82.9335 14.0847C83.1335 13.8642 83.2852 13.6044 83.3788 13.3219C83.4724 13.0394 83.5058 12.7404 83.477 12.4442C83.5053 12.1482 83.4714 11.8497 83.3776 11.5676C83.2837 11.2855 83.132 11.0262 82.932 10.8062C82.7321 10.5862 82.4884 10.4105 82.2165 10.2902C81.9447 10.1699 81.6507 10.1078 81.3534 10.1078C81.0562 10.1078 80.7622 10.1699 80.4903 10.2902C80.2185 10.4105 79.9748 10.5862 79.7748 10.8062C79.5749 11.0262 79.4231 11.2855 79.3293 11.5676ZM81.3549 10.8973C82.1244 10.8973 82.5629 11.4681 82.5629 12.4442C82.5629 13.4241 82.1244 13.9945 81.3549 13.9945C80.5825 13.9945 80.1479 13.4281 80.1479 12.4442C80.1479 11.4681 80.5824 10.8973 81.3549 10.8973ZM84.6696 10.1947H85.525V10.9101H85.5914C85.7041 10.6532 85.8941 10.4378 86.135 10.294C86.3758 10.1502 86.6556 10.0851 86.9352 10.1078C87.1543 10.0914 87.3743 10.1244 87.5789 10.2045C87.7835 10.2846 87.9674 10.4097 88.1171 10.5705C88.2668 10.7314 88.3784 10.9238 88.4436 11.1337C88.5088 11.3435 88.5259 11.5653 88.4938 11.7826V14.6976H87.6051V12.0058C87.6051 11.2822 87.2907 10.9223 86.6334 10.9223C86.4847 10.9154 86.3362 10.9407 86.1981 10.9965C86.0601 11.0523 85.9357 11.1374 85.8336 11.2457C85.7315 11.3541 85.654 11.4833 85.6064 11.6244C85.5589 11.7656 85.5425 11.9153 85.5582 12.0634V14.6977H84.6696V10.1947ZM93.5153 10.2152V9.07361H92.6256V10.2152H91.9108V10.9637H92.6256V13.5067C92.6256 14.3749 93.0192 14.7225 94.0074 14.7225C94.1696 14.7209 94.3313 14.7057 94.4909 14.6771V13.9369C94.3784 13.9502 94.2652 13.957 94.152 13.9574C93.7096 13.9574 93.5153 13.7509 93.5153 13.2792V10.9637H94.4909V10.2152H93.5153ZM95.7047 8.43689H96.5856V10.9183H96.6559C96.774 10.659 96.9692 10.4424 97.2149 10.2981C97.4606 10.1537 97.7449 10.0886 98.0289 10.1117C98.2468 10.0998 98.4647 10.1362 98.667 10.2183C98.8693 10.3003 99.051 10.426 99.1991 10.5863C99.3472 10.7467 99.4581 10.9377 99.5239 11.1458C99.5897 11.354 99.6087 11.5741 99.5797 11.7904V14.6976H98.6901V12.0096C98.6901 11.2904 98.3551 10.9261 97.7272 10.9261C97.5745 10.9136 97.4208 10.9346 97.2771 10.9877C97.1333 11.0407 97.0028 11.1245 96.8948 11.2333C96.7868 11.342 96.7039 11.473 96.6519 11.6172C96.5998 11.7613 96.5798 11.9151 96.5934 12.0677V14.6976H95.7048L95.7047 8.43689ZM104.022 14.4876C104.379 14.2494 104.641 13.8934 104.762 13.4819L103.906 13.4819C103.802 13.6688 103.644 13.8206 103.453 13.9178C103.263 14.015 103.047 14.0533 102.835 14.0278C102.669 14.0296 102.505 13.9968 102.352 13.9314C102.2 13.866 102.063 13.7694 101.95 13.648C101.837 13.5265 101.751 13.3828 101.697 13.2261C101.642 13.0693 101.622 12.903 101.636 12.7378V12.688H104.815V12.3779C104.815 10.9639 104.059 10.1079 102.806 10.1079C102.509 10.1053 102.214 10.1667 101.943 10.2879C101.671 10.4092 101.428 10.5873 101.232 10.8104C101.035 11.0335 100.888 11.2962 100.802 11.5809C100.715 11.8656 100.691 12.1655 100.73 12.4604C100.69 12.7544 100.714 13.0537 100.8 13.3375C100.887 13.6213 101.034 13.8829 101.232 14.104C101.43 14.3251 101.674 14.5006 101.946 14.6181C102.219 14.7356 102.514 14.7924 102.81 14.7846C103.237 14.8309 103.666 14.7257 104.022 14.4876ZM103.91 12.0307H101.636C101.634 11.877 101.662 11.7245 101.72 11.5821C101.778 11.4397 101.864 11.3103 101.973 11.2016C102.081 11.0929 102.211 11.007 102.353 10.9491C102.495 10.8911 102.648 10.8623 102.802 10.8642C102.953 10.8607 103.104 10.889 103.244 10.9472C103.383 11.0053 103.51 11.0922 103.614 11.202C103.718 11.3119 103.799 11.4423 103.85 11.5851C103.901 11.7278 103.921 11.8796 103.91 12.0307Z" fill="white"/>
</g>
<defs>
<clipPath id="clip0_1_95">
<rect width="120" height="40" fill="white"/>
</clipPath>
</defs>
</svg>
