<svg width="24" height="24" viewBox="0 0 24 24" fill="none" xmlns="http://www.w3.org/2000/svg">
<path d="M7.83333 9.26667H7.93333V9.16667V7.54762C7.93333 6.5016 8.36106 5.49781 9.1234 4.75725C9.88584 4.01659 10.9205 3.6 12 3.6C13.0795 3.6 14.1142 4.01659 14.8766 4.75725C15.6389 5.49781 16.0667 6.5016 16.0667 7.54762V9.16667V9.26667H16.1667H18.6667C18.8621 9.26667 19.0489 9.3421 19.1862 9.4755C19.3235 9.6088 19.4 9.78896 19.4 9.97619V19.6905C19.4 19.8777 19.3235 20.0579 19.1862 20.1912C19.0489 20.3246 18.8621 20.4 18.6667 20.4H5.33333C5.13792 20.4 4.95107 20.3246 4.81376 20.1912C4.67654 20.0579 4.6 19.8777 4.6 19.6905V9.97619C4.6 9.78896 4.67654 9.6088 4.81376 9.4755C4.95108 9.3421 5.13792 9.26667 5.33333 9.26667H7.83333ZM7.93333 10.7857V10.6857H7.83333H6.16667H6.06667V10.7857V18.881V18.981H6.16667H17.8333H17.9333V18.881V10.7857V10.6857H17.8333H16.1667H16.0667V10.7857V12.3048H14.6V10.7857V10.6857H14.5H9.5H9.4V10.7857V12.3048H7.93333V10.7857ZM9.4 9.16667V9.26667H9.5H14.5H14.6V9.16667V7.54762C14.6 6.87605 14.3253 6.23259 13.8374 5.75863C13.3496 5.28477 12.6886 5.01905 12 5.01905C11.3114 5.01905 10.6504 5.28477 10.1626 5.75863C9.67465 6.23259 9.4 6.87605 9.4 7.54762V9.16667Z" fill="black" stroke="white" stroke-width="0.2"/>
</svg>
