<svg width="135" height="40" viewBox="0 0 135 40" fill="none" xmlns="http://www.w3.org/2000/svg">
<g clip-path="url(#clip0_1_123)">
<path d="M130 40H5.00012C2.25012 40 0.00012207 37.75 0.00012207 35V5C0.00012207 2.25 2.25012 0 5.00012 0H130C132.75 0 135 2.25 135 5V35C135 37.75 132.75 40 130 40Z" fill="black"/>
<path d="M130 0H5.00012C2.25012 0 0.00012207 2.25 0.00012207 4.999V35C0.00012207 37.749 2.25012 40 5.00012 40H130C132.75 40 135 37.749 135 35V4.999C135 2.25 132.75 0 130 0ZM130 0.799C132.316 0.799 134.2 2.684 134.2 4.999V35C134.2 37.315 132.316 39.2 130 39.2H5.00012C2.68412 39.2 0.800122 37.315 0.800122 35V4.999C0.800122 2.684 2.68412 0.799 5.00012 0.799H130Z" fill="#A8A8A8"/>
<path d="M47.3967 10.2335C47.3967 11.0715 47.1487 11.7385 46.6517 12.2365C46.0867 12.8275 45.3517 13.1235 44.4477 13.1235C43.5817 13.1235 42.8447 12.8235 42.2397 12.2235C41.6327 11.6225 41.3307 10.8785 41.3307 9.98947C41.3307 9.10147 41.6327 8.35747 42.2397 7.75647C42.8447 7.15547 43.5817 6.85547 44.4477 6.85547C44.8767 6.85547 45.2887 6.93947 45.6787 7.10747C46.0697 7.27547 46.3827 7.49847 46.6177 7.77747L46.0897 8.30547C45.6927 7.83047 45.1457 7.59347 44.4477 7.59347C43.8157 7.59347 43.2697 7.81547 42.8087 8.25947C42.3477 8.70347 42.1177 9.28047 42.1177 9.98947C42.1177 10.6995 42.3477 11.2765 42.8087 11.7205C43.2697 12.1645 43.8157 12.3865 44.4477 12.3865C45.1177 12.3865 45.6757 12.1635 46.1237 11.7165C46.4137 11.4255 46.5817 11.0205 46.6257 10.5015H44.4477V9.78047H47.3547C47.3827 9.93747 47.3967 10.0875 47.3967 10.2335Z" fill="white"/>
<path d="M52.0187 7.7253H49.2867V9.62731H51.7507V10.3483H49.2867V12.2503H52.0187V12.9873H48.5157V6.9873H52.0187V7.7253Z" fill="white"/>
<path d="M55.2474 12.9873H54.4764V7.7253H52.8004V6.9873H56.9234V7.7253H55.2474V12.9873Z" fill="white"/>
<path d="M60.6896 6.9873H59.9196V12.9873H60.6896V6.9873Z" fill="white"/>
<path d="M64.1463 12.9873H63.3743V7.7253H61.6993V6.9873H65.8223V7.7253H64.1463V12.9873Z" fill="white"/>
<path d="M69.8101 11.7125C70.2541 12.1615 70.7971 12.3865 71.4401 12.3865C72.0821 12.3865 72.6261 12.1615 73.0701 11.7125C73.5141 11.2625 73.7371 10.6885 73.7371 9.98947C73.7371 9.29147 73.5141 8.71747 73.0701 8.26747C72.6261 7.81847 72.0821 7.59347 71.4401 7.59347C70.7971 7.59347 70.2541 7.81847 69.8101 8.26747C69.3661 8.71747 69.1441 9.29147 69.1441 9.98947C69.1441 10.6885 69.3661 11.2625 69.8101 11.7125ZM73.6401 12.2145C73.0501 12.8215 72.3171 13.1235 71.4401 13.1235C70.5631 13.1235 69.8291 12.8215 69.2411 12.2145C68.6511 11.6085 68.3571 10.8665 68.3571 9.98947C68.3571 9.11247 68.6511 8.37147 69.2411 7.76547C69.8291 7.15847 70.5631 6.85547 71.4401 6.85547C72.3121 6.85547 73.0431 7.16047 73.6361 7.76947C74.2281 8.37847 74.5241 9.11847 74.5241 9.98947C74.5241 10.8665 74.2291 11.6085 73.6401 12.2145Z" fill="white"/>
<path d="M75.608 12.9873V6.9873H76.546L79.462 11.6553H79.495L79.462 10.4993V6.9873H80.234V12.9873H79.429L76.378 8.09431H76.345L76.378 9.2503V12.9873H75.608Z" fill="white"/>
<path fill-rule="evenodd" clip-rule="evenodd" d="M71.4082 12.5205C70.7422 12.5215 70.1672 12.2845 69.7072 11.8165C69.2442 11.3485 69.0112 10.7435 69.0122 10.0235C69.0112 9.30455 69.2442 8.69955 69.7072 8.23155C70.1672 7.76355 70.7422 7.52655 71.4082 7.52755C72.0742 7.52655 72.6492 7.76355 73.1092 8.23155C73.5722 8.69955 73.8062 9.30455 73.8052 10.0235C73.8062 10.7435 73.5722 11.3485 73.1092 11.8165C72.6492 12.2845 72.0742 12.5215 71.4082 12.5205ZM69.2122 10.0235C69.2132 10.7015 69.4252 11.2445 69.8492 11.6755C70.2772 12.1075 70.7882 12.3195 71.4082 12.3205C72.0272 12.3195 72.5392 12.1075 72.9662 11.6755C73.3922 11.2445 73.6042 10.7015 73.6052 10.0235C73.6042 9.34655 73.3922 8.80355 72.9662 8.37255V8.37155C72.5392 7.94055 72.0272 7.72855 71.4082 7.72755C70.7882 7.72855 70.2772 7.94055 69.8492 8.37255V8.37155C69.4252 8.80355 69.2132 9.34655 69.2122 10.0235ZM71.4082 13.0575C72.2622 13.0565 72.9632 12.7665 73.5362 12.1785C74.1072 11.5895 74.3912 10.8785 74.3922 10.0235C74.3912 9.17455 74.1072 8.46555 73.5322 7.87355C72.9562 7.28255 72.2572 6.99055 71.4082 6.98955C70.5542 6.99055 69.8522 7.28155 69.2802 7.86955C68.7082 8.45855 68.4262 9.16955 68.4252 10.0235C68.4262 10.8785 68.7082 11.5895 69.2802 12.1785C69.8522 12.7665 70.5542 13.0565 71.4082 13.0575ZM74.5922 10.0235C74.5932 10.9235 74.2862 11.6955 73.6802 12.3185C73.0732 12.9435 72.3082 13.2585 71.4082 13.2575C70.5082 13.2585 69.7422 12.9435 69.1372 12.3185C68.5292 11.6955 68.2242 10.9235 68.2252 10.0235C68.2242 9.12455 68.5292 8.35255 69.1372 7.72955C69.7422 7.10455 70.5082 6.78855 71.4082 6.78955C72.3032 6.78855 73.0662 7.10655 73.6762 7.73355C74.2852 8.35955 74.5932 9.12955 74.5922 10.0235ZM60.0536 12.9214H60.6236V7.12139H60.0536V12.9214ZM60.8236 13.1214H59.9536H59.8536V6.92139H59.9536H60.8236V13.1214ZM64.0145 7.65939V12.9214H63.4425V7.65939H61.7675V7.12139H65.6905V7.65939H64.0145ZM64.2145 13.0214V7.85939H65.8905V7.02139V6.92139H61.5675V7.85939H63.2425V13.1214H64.2145V13.0214ZM76.2462 12.9214H75.6762V7.12139H76.4592L79.3752 11.7894H79.5662L79.5302 10.5314V7.12139H80.1022V12.9214H79.4532L76.4022 8.02839H76.3132H76.2102L76.2462 9.28639V12.9214ZM75.5762 13.1214H76.4462V9.28339L76.4221 8.43945L79.3422 13.1214H80.3022V6.92139H79.4302H79.3302V10.5344L79.3543 11.3787L76.5702 6.92139H75.5762H75.4762V13.1214H75.5762ZM108.828 30.0257H106.962V17.5238H108.828V30.0257ZM121.63 27.4467L123.769 22.0268H125.844L120.714 33.8157H118.767L120.665 29.6027L117.336 22.0268H119.346L121.566 27.4467H121.63ZM111.723 27.5437C111.723 28.2997 112.575 28.6047 113.187 28.6047C114.264 28.6047 115.261 27.7847 115.406 26.6267C114.907 26.3857 114.522 26.2087 113.701 26.2087C112.785 26.2087 111.723 26.5787 111.723 27.5437ZM110.083 23.6677C110.662 22.3488 112.061 21.7538 113.412 21.7538C115.551 21.7538 117.207 22.9918 117.207 25.2118V30.0047H115.406V29.0397H115.342C114.907 29.6987 114.216 30.2617 112.961 30.2617C111.321 30.2617 109.857 29.1837 109.857 27.5117C109.857 25.6777 111.675 24.6968 113.46 24.6968C114.345 24.6968 115.068 24.9867 115.406 25.1798V25.0507C115.39 24.0217 114.409 23.4427 113.444 23.4427C112.752 23.4427 112.093 23.6677 111.739 24.3597L110.083 23.6677ZM99.226 23.5487H101.88C103.275 23.5487 104.067 22.3758 104.067 21.4068C104.067 20.4188 103.275 19.2638 101.88 19.2638H99.226V23.5487ZM97.361 17.5238H101.832C103.9 17.5238 105.933 19.0208 105.933 21.4068C105.933 23.7917 103.9 25.2887 101.832 25.2887H99.226V30.0257H97.361V17.5238ZM75.082 26.0457C75.082 27.5277 76.162 28.6077 77.45 28.6077C78.723 28.6077 79.722 27.5277 79.722 26.0457C79.722 24.5478 78.723 23.4527 77.45 23.4527C76.162 23.4527 75.082 24.5478 75.082 26.0457ZM79.529 22.7277H79.593V22.0348H81.365V29.6707C81.365 32.8127 79.513 34.1017 77.321 34.1017C75.259 34.1017 74.019 32.7157 73.552 31.5877L75.179 30.9117C75.469 31.6037 76.178 32.4257 77.321 32.4257C78.723 32.4257 79.593 31.5557 79.593 29.9287V29.3167H79.529C79.11 29.8317 78.304 30.2827 77.289 30.2827C75.163 30.2827 73.213 28.4307 73.213 26.0457C73.213 23.6458 75.163 21.7768 77.289 21.7768C78.304 21.7768 79.11 22.2277 79.529 22.7277ZM84.523 30.0257H82.654V17.5238H84.523V30.0257ZM89.501 23.4198C88.551 23.4198 87.229 24.2577 87.278 25.9007L91.08 24.3228C90.871 23.7908 90.243 23.4198 89.501 23.4198ZM89.437 21.7768C91.644 21.7768 92.724 23.5328 93.078 24.4837L93.271 24.9667L87.584 27.3187C88.019 28.1727 88.695 28.6077 89.646 28.6077C90.597 28.6077 91.258 28.1407 91.741 27.4317L93.191 28.3977C92.724 29.0907 91.596 30.2827 89.646 30.2827C87.229 30.2827 85.425 28.4147 85.425 26.0297C85.425 23.5007 87.246 21.7768 89.437 21.7768ZM47.769 24.8857V23.0817H53.843C53.907 23.4037 53.94 23.7908 53.94 24.2097C53.94 25.5627 53.569 27.2377 52.377 28.4307C51.217 29.6387 49.735 30.2827 47.769 30.2827C44.128 30.2827 41.067 27.3187 41.067 23.6777C41.067 20.0368 44.128 17.0728 47.769 17.0728C49.783 17.0728 51.217 17.8618 52.296 18.8928L51.024 20.1658C50.25 19.4408 49.203 18.8768 47.769 18.8768C45.111 18.8768 43.033 21.0198 43.033 23.6777C43.033 26.3357 45.111 28.4787 47.769 28.4787C49.493 28.4787 50.476 27.7857 51.104 27.1577C51.62 26.6417 51.958 25.9007 52.087 24.8857H47.769ZM56.448 26.0297C56.448 27.5447 57.559 28.6077 58.848 28.6077C60.137 28.6077 61.248 27.5447 61.248 26.0297C61.248 24.4998 60.137 23.4527 58.848 23.4527C57.559 23.4527 56.448 24.4998 56.448 26.0297ZM54.579 26.0297C54.579 23.5648 56.496 21.7768 58.848 21.7768C61.2 21.7768 63.117 23.5648 63.117 26.0297C63.117 28.4787 61.2 30.2827 58.848 30.2827C56.496 30.2827 54.579 28.4787 54.579 26.0297ZM65.761 26.0297C65.761 27.5447 66.873 28.6077 68.161 28.6077C69.45 28.6077 70.562 27.5447 70.562 26.0297C70.562 24.4998 69.45 23.4527 68.161 23.4527C66.873 23.4527 65.761 24.4998 65.761 26.0297ZM63.892 26.0297C63.892 23.5648 65.809 21.7768 68.161 21.7768C70.514 21.7768 72.431 23.5648 72.431 26.0297C72.431 28.4787 70.514 30.2827 68.161 30.2827C65.809 30.2827 63.892 28.4787 63.892 26.0297Z" fill="white"/>
<path fill-rule="evenodd" clip-rule="evenodd" d="M10.4907 32.3586L10.4167 32.2876C10.1257 31.9796 9.95374 31.5016 9.95374 30.8826V31.0276V8.91157V8.90657V9.05857C9.95374 8.38857 10.1547 7.88257 10.4897 7.58057L22.8797 19.9696L10.4907 32.3586ZM9.95374 8.90557C9.95374 8.85057 9.95574 8.79657 9.95774 8.74457C9.95574 8.79657 9.95374 8.85057 9.95374 8.90557ZM9.95874 8.74157V8.73957V8.74157ZM9.95874 8.73457V8.73357V8.73457Z" fill="url(#paint0_linear_1_123)"/>
<path fill-rule="evenodd" clip-rule="evenodd" d="M27.0027 24.2942L27.0967 24.2402L31.9897 21.4602C32.4567 21.1952 32.7677 20.8742 32.9227 20.5332C32.7677 20.8742 32.4567 21.1952 31.9897 21.4612L27.0967 24.2412L27.0027 24.2942ZM27.0037 24.1472L22.8737 20.0162L27.0037 15.8862L31.9897 18.7192C32.6237 19.0782 32.9787 19.5422 33.0377 20.0162V20.0182C32.9787 20.4902 32.6237 20.9542 31.9897 21.3142L27.0037 24.1472Z" fill="url(#paint1_linear_1_123)"/>
<path fill-rule="evenodd" clip-rule="evenodd" d="M11.3662 32.8341C11.0202 32.8341 10.7192 32.7211 10.4832 32.5091V32.5081C10.7192 32.7211 11.0212 32.8341 11.3672 32.8341C11.3972 32.8341 11.4282 32.8331 11.4592 32.8311C11.4282 32.8331 11.3972 32.8341 11.3662 32.8341ZM11.3672 32.6871C11.0212 32.6881 10.7192 32.5751 10.4832 32.3621L22.8722 19.9731L27.0022 24.1041L12.4872 32.3521C12.0862 32.5801 11.7052 32.6871 11.3672 32.6871ZM10.4802 32.5061C10.4582 32.4861 10.4362 32.4651 10.4152 32.4431L10.4802 32.5061Z" fill="url(#paint2_linear_1_123)"/>
<path fill-rule="evenodd" clip-rule="evenodd" d="M22.8711 19.9791L10.4811 7.59014C10.7171 7.37814 11.0181 7.26514 11.3641 7.26514C11.7031 7.26514 12.0841 7.37314 12.4861 7.60214L27.0011 15.8491L22.8711 19.9791ZM27.0941 15.7561L12.4861 7.45614C12.0841 7.22714 11.7031 7.11914 11.3641 7.11914H11.3601H11.3651C11.7041 7.11914 12.0841 7.22714 12.4861 7.45514L27.0941 15.7551V15.7561Z" fill="url(#paint3_linear_1_123)"/>
<path d="M11.4652 32.8378C11.7792 32.8198 12.1272 32.7118 12.4932 32.5048L27.0072 24.2578L12.4932 32.5048C12.1272 32.7128 11.7792 32.8208 11.4652 32.8378ZM10.4892 32.5158L10.4862 32.5128C10.4872 32.5138 10.4882 32.5148 10.4892 32.5158ZM10.4212 32.4498L10.4152 32.4438C10.4172 32.4458 10.4192 32.4478 10.4212 32.4498Z" fill="black"/>
<path fill-rule="evenodd" clip-rule="evenodd" d="M27.0265 24.3118L27.1205 24.2578L27.0265 24.3118Z" fill="url(#paint4_linear_1_123)"/>
<path fill-rule="evenodd" clip-rule="evenodd" d="M11.3732 32.856C11.0272 32.856 10.7252 32.743 10.4892 32.53V32.531C10.4882 32.53 10.4872 32.529 10.4862 32.528L10.4212 32.465C10.4192 32.463 10.4172 32.461 10.4152 32.459L10.4892 32.384C10.7252 32.597 11.0272 32.71 11.3732 32.709C11.7112 32.709 12.0922 32.602 12.4932 32.374L27.0082 24.126L27.1012 24.219L27.0072 24.273L12.4932 32.52C12.1272 32.727 11.7792 32.835 11.4652 32.853C11.4342 32.855 11.4032 32.856 11.3732 32.856Z" fill="url(#paint5_linear_1_123)"/>
<path d="M10.4167 32.4534C10.1257 32.1454 9.95374 31.6674 9.95374 31.0484V31.0474C9.95374 31.6674 10.1257 32.1454 10.4167 32.4524V32.4534Z" fill="black"/>
<path fill-rule="evenodd" clip-rule="evenodd" d="M10.4167 32.4655C10.1257 32.1585 9.95374 31.6805 9.95374 31.0605V30.9155C9.95374 31.5345 10.1257 32.0125 10.4167 32.3205L10.4907 32.3915L10.4167 32.4655Z" fill="url(#paint6_linear_1_123)"/>
<path fill-rule="evenodd" clip-rule="evenodd" d="M10.4152 32.4407V32.4397L10.4892 32.3657L10.4152 32.4407Z" fill="url(#paint7_linear_1_123)"/>
<path d="M32.9591 20.4891C33.0361 20.3211 33.0741 20.1471 33.0741 19.9741C33.0741 19.9731 33.0751 19.9731 33.0751 19.9731C33.0751 20.1471 33.0361 20.3201 32.9591 20.4891Z" fill="black"/>
<path fill-rule="evenodd" clip-rule="evenodd" d="M27.1195 24.1951L27.0265 24.1021L32.0125 21.2691C32.6465 20.9091 33.0015 20.4451 33.0605 19.9731C33.0605 20.1461 33.0225 20.3201 32.9455 20.4881C32.7905 20.8291 32.4795 21.1501 32.0125 21.4151L27.1195 24.1951Z" fill="url(#paint8_linear_1_123)"/>
<path d="M33.0344 19.9784H33.0334C33.0334 19.4554 32.6844 18.9324 31.9854 18.5354L27.0924 15.7554V15.7544L31.9854 18.5354C32.6844 18.9324 33.0344 19.4554 33.0344 19.9784Z" fill="#3E3E3E"/>
<path fill-rule="evenodd" clip-rule="evenodd" d="M33.0605 19.9774C33.0015 19.5034 32.6465 19.0394 32.0125 18.6804L27.0265 15.8474L27.1195 15.7544L32.0125 18.5344C32.7115 18.9314 33.0605 19.4544 33.0605 19.9774Z" fill="url(#paint9_linear_1_123)"/>
<path d="M9.95374 8.91614V8.91514V8.91614ZM9.95774 8.75414C9.95874 8.75314 9.95874 8.75214 9.95874 8.75114C9.95874 8.75214 9.95874 8.75314 9.95774 8.75414ZM9.95874 8.74914V8.74414V8.74914ZM9.95874 8.74314C10.0167 7.71614 10.5747 7.12314 11.3647 7.11914C11.0227 7.12114 10.7247 7.23314 10.4907 7.44414L10.4877 7.44714C10.4637 7.46914 10.4397 7.49214 10.4167 7.51614C10.1547 7.79414 9.98874 8.21014 9.95874 8.74314Z" fill="#3E3E3E"/>
<path fill-rule="evenodd" clip-rule="evenodd" d="M9.95374 9.07273V8.92673V8.92073V8.91973C9.95374 8.86473 9.95574 8.81073 9.95774 8.75873C9.95874 8.75773 9.95874 8.75673 9.95874 8.75573V8.75373V8.74873V8.74773C9.98874 8.21473 10.1547 7.79873 10.4167 7.52073L10.4897 7.59473C10.1547 7.89673 9.95374 8.40273 9.95374 9.07273ZM10.4877 7.45173L10.4907 7.44873C10.4897 7.44973 10.4887 7.45073 10.4877 7.45173Z" fill="url(#paint10_linear_1_123)"/>
<path fill-rule="evenodd" clip-rule="evenodd" d="M27.0082 15.8491L12.4932 7.60214C12.0912 7.37314 11.7102 7.26514 11.3712 7.26514C11.0252 7.26514 10.7242 7.37814 10.4882 7.59014L10.4152 7.51614C10.4382 7.49214 10.4622 7.46914 10.4862 7.44714C10.4872 7.44614 10.4882 7.44514 10.4892 7.44414C10.7232 7.23314 11.0212 7.12114 11.3632 7.11914H11.3712C11.7102 7.11914 12.0912 7.22714 12.4932 7.45614L27.1012 15.7561L27.0082 15.8491Z" fill="url(#paint11_linear_1_123)"/>
</g>
<defs>
<linearGradient id="paint0_linear_1_123" x1="21.7815" y1="8.67827" x2="4.99904" y2="-8.10424" gradientUnits="userSpaceOnUse">
<stop stop-color="#00A1FF"/>
<stop offset="1" stop-color="#00E3FF"/>
</linearGradient>
<linearGradient id="paint1_linear_1_123" x1="33.8101" y1="20.0166" x2="9.61306" y2="20.0166" gradientUnits="userSpaceOnUse">
<stop stop-color="#FFE000"/>
<stop offset="1" stop-color="#FF9D00"/>
</linearGradient>
<linearGradient id="paint2_linear_1_123" x1="24.8012" y1="22.2682" x2="2.04287" y2="-0.490053" gradientUnits="userSpaceOnUse">
<stop stop-color="#FF3743"/>
<stop offset="1" stop-color="#E40964"/>
</linearGradient>
<linearGradient id="paint3_linear_1_123" x1="7.27038" y1="0.154341" x2="17.4329" y2="-10.0082" gradientUnits="userSpaceOnUse">
<stop stop-color="#00A16E"/>
<stop offset="1" stop-color="#00EF6C"/>
</linearGradient>
<linearGradient id="paint4_linear_1_123" x1="33.8339" y1="20.034" x2="9.63676" y2="20.034" gradientUnits="userSpaceOnUse">
<stop stop-color="#D6B400"/>
<stop offset="1" stop-color="#E47D00"/>
</linearGradient>
<linearGradient id="paint5_linear_1_123" x1="24.8072" y1="22.2901" x2="2.04887" y2="-0.468224" gradientUnits="userSpaceOnUse">
<stop stop-color="#ED2933"/>
<stop offset="1" stop-color="#B7064D"/>
</linearGradient>
<linearGradient id="paint6_linear_1_123" x1="21.7815" y1="8.71124" x2="4.99904" y2="-8.07125" gradientUnits="userSpaceOnUse">
<stop stop-color="#008DE3"/>
<stop offset="1" stop-color="#00C7E1"/>
</linearGradient>
<linearGradient id="paint7_linear_1_123" x1="24.8072" y1="22.2717" x2="2.04856" y2="-0.486613" gradientUnits="userSpaceOnUse">
<stop stop-color="#FF3039"/>
<stop offset="1" stop-color="#C70657"/>
</linearGradient>
<linearGradient id="paint8_linear_1_123" x1="33.8329" y1="19.9715" x2="9.63589" y2="19.9715" gradientUnits="userSpaceOnUse">
<stop stop-color="#E9C500"/>
<stop offset="1" stop-color="#F88A00"/>
</linearGradient>
<linearGradient id="paint9_linear_1_123" x1="33.8329" y1="19.9778" x2="9.63589" y2="19.9778" gradientUnits="userSpaceOnUse">
<stop stop-color="#FFE91E"/>
<stop offset="1" stop-color="#FFB62F"/>
</linearGradient>
<linearGradient id="paint10_linear_1_123" x1="21.7815" y1="8.69243" x2="4.99907" y2="-8.09006" gradientUnits="userSpaceOnUse">
<stop stop-color="#00B9FF"/>
<stop offset="1" stop-color="#00EAFF"/>
</linearGradient>
<linearGradient id="paint11_linear_1_123" x1="7.27746" y1="0.154342" x2="17.44" y2="-10.0082" gradientUnits="userSpaceOnUse">
<stop stop-color="#00B995"/>
<stop offset="1" stop-color="#00F493"/>
</linearGradient>
<clipPath id="clip0_1_123">
<rect width="135" height="40" fill="white"/>
</clipPath>
</defs>
</svg>
