
<svg width="24" height="24" viewBox="0 0 24 24" fill="none" xmlns="http://www.w3.org/2000/svg">
<path d="M11.9333 5.39729L12.0007 5.45888L12.0682 5.39724C14.0253 3.60788 17.0493 3.66726 18.9349 5.59079C20.8201 7.51568 20.8857 10.5814 19.1335 12.5816L11.999 19.8572L4.8662 12.5816C3.11397 10.5813 3.18054 7.51051 5.06476 5.59087C6.95213 3.66975 9.9703 3.60535 11.9333 5.39729ZM17.8741 6.67384L17.8741 6.67381C16.5614 5.33533 14.4431 5.28075 13.0688 6.53758C13.0688 6.53759 13.0688 6.5376 13.0688 6.53761L12.0015 7.51293L10.9334 6.53841C10.9334 6.53841 10.9334 6.5384 10.9334 6.53839C9.55483 5.27989 7.44081 5.33537 6.1248 6.6755C4.82188 8.00231 4.75633 10.1254 5.95697 11.5288L5.9568 11.5289L5.96155 11.5338L11.9284 17.6196L11.9998 17.6924L12.0712 17.6196L18.0381 11.5347L18.0383 11.5348L18.0427 11.5296C19.2443 10.1253 19.1786 8.00491 17.8741 6.67384Z" fill="black" stroke="white" stroke-width="0.2"/>
</svg>
