<svg width="40" height="40" viewBox="0 0 40 40" fill="none" xmlns="http://www.w3.org/2000/svg">
<path d="M20 12.6223C22.403 12.6223 22.688 12.6313 23.6375 12.6748C26.0765 12.7858 27.2157 13.943 27.3267 16.364C27.3702 17.3127 27.3785 17.5978 27.3785 20.0008C27.3785 22.4045 27.3695 22.6888 27.3267 23.6375C27.215 26.0563 26.0788 27.2157 23.6375 27.3267C22.688 27.3702 22.4045 27.3793 20 27.3793C17.597 27.3793 17.312 27.3702 16.3633 27.3267C13.9183 27.215 12.785 26.0525 12.674 23.6368C12.6305 22.688 12.6215 22.4037 12.6215 20C12.6215 17.597 12.6313 17.3128 12.674 16.3633C12.7858 13.943 13.922 12.785 16.3633 12.674C17.3128 12.6313 17.597 12.6223 20 12.6223V12.6223ZM20 11C17.5557 11 17.2497 11.0105 16.2897 11.054C13.0213 11.204 11.2048 13.0175 11.0547 16.289C11.0105 17.2498 11 17.5557 11 20C11 22.4443 11.0105 22.751 11.054 23.711C11.204 26.9795 13.0175 28.796 16.289 28.946C17.2498 28.9895 17.5557 29 20 29C22.4443 29 22.751 28.9895 23.711 28.946C26.9765 28.796 28.7975 26.9825 28.9453 23.711C28.9895 22.751 29 22.4443 29 20C29 17.5557 28.9895 17.2497 28.946 16.2897C28.799 13.0242 26.9832 11.2048 23.7117 11.0547C22.751 11.0105 22.4443 11 20 11V11ZM20 15.3785C17.4477 15.3785 15.3785 17.4477 15.3785 20C15.3785 22.5523 17.4477 24.6223 20 24.6223C22.5523 24.6223 24.6215 22.553 24.6215 20C24.6215 17.4477 22.5523 15.3785 20 15.3785ZM20 23C18.3432 23 17 21.6575 17 20C17 18.3432 18.3432 17 20 17C21.6568 17 23 18.3432 23 20C23 21.6575 21.6568 23 20 23ZM24.8045 14.1163C24.2075 14.1163 23.7238 14.6 23.7238 15.1962C23.7238 15.7925 24.2075 16.2762 24.8045 16.2762C25.4008 16.2762 25.8837 15.7925 25.8837 15.1962C25.8837 14.6 25.4008 14.1163 24.8045 14.1163Z" fill="black"/>
</svg>
