<svg width="24" height="24" viewBox="0 0 24 24" fill="none" xmlns="http://www.w3.org/2000/svg">
<path d="M18.4 20.4H16.975V18.881C16.975 18.2102 16.7076 17.567 16.2317 17.0929C15.7558 16.6187 15.1104 16.3524 14.4375 16.3524H9.5625C8.88963 16.3524 8.24425 16.6187 7.76835 17.0929C7.29243 17.567 7.025 18.2102 7.025 18.881V20.4H5.6V18.881C5.6 17.8341 6.01739 16.83 6.76046 16.0897C7.50354 15.3493 8.51146 14.9333 9.5625 14.9333H14.4375C15.4885 14.9333 16.4965 15.3493 17.2395 16.0897C17.9826 16.83 18.4 17.8341 18.4 18.881V20.4ZM12 13.1143C11.3729 13.1143 10.7519 12.9912 10.1726 12.7521C9.59321 12.513 9.06682 12.1626 8.62344 11.7208C8.18005 11.2791 7.82836 10.7546 7.58843 10.1775C7.34849 9.60037 7.225 8.98181 7.225 8.35714C7.225 7.73248 7.34849 7.11392 7.58843 6.53678C7.82836 5.95965 8.18005 5.43522 8.62344 4.99346C9.06682 4.55171 9.59321 4.20126 10.1726 3.96217C10.7519 3.72307 11.3729 3.6 12 3.6C13.2665 3.6 14.4811 4.10129 15.3766 4.99346C16.272 5.88563 16.775 7.09559 16.775 8.35714C16.775 9.6187 16.272 10.8287 15.3766 11.7208C14.4811 12.613 13.2665 13.1143 12 13.1143ZM12 11.6952C12.8884 11.6952 13.7404 11.3436 14.3687 10.7177C14.997 10.0917 15.35 9.24258 15.35 8.35714C15.35 7.47171 14.997 6.62261 14.3687 5.99662C13.7404 5.37065 12.8884 5.01905 12 5.01905C11.1116 5.01905 10.2596 5.37065 9.63132 5.99662C9.00303 6.62261 8.65 7.47171 8.65 8.35714C8.65 9.24258 9.00303 10.0917 9.63132 10.7177C10.2596 11.3436 11.1116 11.6952 12 11.6952Z" fill="black" stroke="white" stroke-width="0.2"/>
</svg>
