<svg width="24" height="24" viewBox="0 0 24 24" fill="none" xmlns="http://www.w3.org/2000/svg">
<g clip-path="url(#clip0_14_181)">
<path d="M16.8457 14.8922L20.0527 18.0984L18.9932 19.1579L15.7869 15.9509C14.594 16.9073 13.1101 17.4274 11.5811 17.4253C7.86121 17.4253 4.84216 14.4062 4.84216 10.6863C4.84216 6.96643 7.86121 3.94739 11.5811 3.94739C15.301 3.94739 18.32 6.96643 18.32 10.6863C18.3222 12.2153 17.8021 13.6992 16.8457 14.8922ZM15.3437 14.3366C16.2939 13.3593 16.8246 12.0494 16.8225 10.6863C16.8225 7.79008 14.4766 5.44493 11.5811 5.44493C8.68485 5.44493 6.3397 7.79008 6.3397 10.6863C6.3397 13.5818 8.68485 15.9277 11.5811 15.9277C12.9442 15.9299 14.2541 15.3992 15.2314 14.4489L15.3437 14.3366Z" fill="black" stroke="white" stroke-width="0.2"/>
</g>
<defs>
<clipPath id="clip0_14_181">
<rect width="17" height="17" fill="white" transform="translate(3.5 3.5)"/>
</clipPath>
</defs>
</svg>
