<svg width="40" height="40" viewBox="0 0 40 40" fill="none" xmlns="http://www.w3.org/2000/svg">
<path fill-rule="evenodd" clip-rule="evenodd" d="M20 10C14.4783 10 10 14.4767 10 20C10 25.5225 14.4783 30 20 30C25.5225 30 30 25.5225 30 20C30 14.4767 25.5225 10 20 10ZM22.6867 24.8925C22.8433 25.0033 23.045 25.0308 23.225 24.9633C23.4042 24.895 23.5367 24.7408 23.5767 24.5542C23.9992 22.5692 25.0242 17.5442 25.4083 15.7392C25.4375 15.6025 25.3892 15.4608 25.2825 15.37C25.175 15.2792 25.0267 15.2533 24.895 15.3017C22.8567 16.0567 16.5792 18.4117 14.0133 19.3608C13.8508 19.4217 13.745 19.5775 13.75 19.75C13.7558 19.9217 13.8717 20.0708 14.0383 20.1208C15.1892 20.465 16.6992 20.9442 16.6992 20.9442C16.6992 20.9442 17.405 23.0758 17.7725 24.1592C17.8192 24.2958 17.9258 24.4025 18.0658 24.4392C18.2067 24.4758 18.3558 24.4375 18.4608 24.3383C19.0517 23.7808 19.965 22.9183 19.965 22.9183C19.965 22.9183 21.7017 24.1908 22.6867 24.8925ZM17.3342 20.6742L18.1508 23.3667L18.3325 21.6617C18.3325 21.6617 21.485 18.8175 23.2833 17.1967C23.3358 17.1492 23.3425 17.0692 23.2992 17.0133C23.2558 16.9575 23.1758 16.9442 23.1167 16.9825C21.0333 18.3125 17.3342 20.6742 17.3342 20.6742Z" fill="black"/>
</svg>
