<svg width="40" height="40" viewBox="0 0 40 40" fill="none" xmlns="http://www.w3.org/2000/svg">
<path d="M20.8715 25.2455C21.3282 25.2455 21.515 24.941 21.5097 24.5592C21.4865 23.1215 22.0452 22.3475 23.054 23.3563C24.17 24.4722 24.401 25.2455 25.7562 25.2455H28.1562C28.7623 25.2455 29.0007 25.0505 29.0007 24.7445C29.0007 24.0972 27.935 22.955 27.032 22.1165C25.7675 20.9427 25.7083 20.915 26.7972 19.502C28.148 17.7478 29.915 15.5 28.352 15.5H25.3663C24.7873 15.5 24.7452 15.8263 24.539 16.3123C23.7928 18.0725 22.3745 20.3525 21.836 20.0037C21.2727 19.64 21.5307 18.1992 21.5735 16.058C21.5847 15.4925 21.5817 15.1047 20.7177 14.9037C20.246 14.795 19.787 14.75 19.361 14.75C17.6562 14.75 16.4802 15.4647 17.1485 15.5892C18.3267 15.809 18.2135 18.3583 17.939 19.4593C17.4605 21.3763 15.662 17.9412 14.9128 16.2305C14.732 15.8195 14.6765 15.5 14.0315 15.5H11.5903C11.2212 15.5 11 15.62 11 15.887C11 16.3385 13.22 20.927 15.3395 23.2145C17.4065 25.4457 19.4495 25.2455 20.8715 25.2455Z" fill="black"/>
</svg>
